<?xml version="1.0" standalone="no"?>
<!DOCTYPE svg PUBLIC "-//W3C//DTD SVG 20010904//EN"
 "http://www.w3.org/TR/2001/REC-SVG-20010904/DTD/svg10.dtd">
<svg version="1.0" xmlns="http://www.w3.org/2000/svg"
 width="200.000000pt" height="200.000000pt" viewBox="0 0 200.000000 200.000000"
 preserveAspectRatio="xMidYMid meet">
<metadata>
Created by potrace 1.11, written by Peter Selinger 2001-2013
</metadata>
<g transform="translate(0.000000,200.000000) scale(0.100000,-0.100000)"
fill="#000000" stroke="none">
<path d="M104 1251 c-2 -2 -4 -117 -4 -255 l0 -251 900 -1 900 -1 0 257 0 257
-896 -1 c-493 0 -898 -3 -900 -5z m1004 -248 c0 -151 -3 -213 -11 -215 -10 -4
-922 -2 -938 1 -7 1 -5 404 3 416 4 6 174 10 476 10 l470 0 0 -212z"/>
<path d="M170 1043 c0 -39 7 -42 20 -8 19 49 31 27 27 -50 l-3 -75 29 2 c26 2
51 18 28 18 -5 0 -10 28 -10 65 0 36 4 65 8 65 14 0 29 -23 24 -36 -3 -8 0
-14 6 -14 6 0 12 7 12 15 1 8 2 22 3 31 1 14 -11 17 -71 18 l-73 2 0 -33z m67
-45 c-3 -7 -5 -2 -5 12 0 14 2 19 5 13 2 -7 2 -19 0 -25z m0 -40 c-3 -8 -6 -5
-6 6 -1 11 2 17 5 13 3 -3 4 -12 1 -19z"/>
<path d="M334 1068 c-3 -5 0 -8 6 -8 7 0 9 -13 5 -36 -3 -23 -1 -42 7 -52 10
-12 11 -16 0 -19 -6 -3 -10 -9 -6 -14 3 -5 0 -9 -5 -9 -6 0 -11 -4 -11 -8 0
-5 15 -8 34 -8 31 1 33 3 24 25 -5 16 -5 28 2 35 13 13 27 -2 32 -34 2 -18 9
-25 26 -26 12 -1 25 3 28 7 3 5 0 9 -5 9 -6 0 -11 9 -11 19 0 11 -5 23 -10 26
-7 4 -5 14 4 27 17 24 3 67 -23 69 -50 5 -93 3 -97 -3z m86 -39 c0 -21 -5 -29
-18 -29 -12 0 -18 7 -17 23 1 52 35 59 35 6z m17 -11 c-3 -8 -6 -5 -6 6 -1 11
2 17 5 13 3 -3 4 -12 1 -19z m-75 -30 c-7 -7 -12 -8 -12 -2 0 14 12 26 19 19
2 -3 -1 -11 -7 -17z m75 -50 c-3 -7 -5 -2 -5 12 0 14 2 19 5 13 2 -7 2 -19 0
-25z"/>
<path d="M490 1069 c0 -4 7 -12 15 -19 11 -9 12 -16 5 -25 -15 -18 -6 -83 13
-103 13 -12 24 -14 54 -6 l38 9 0 68 c0 57 3 67 17 67 10 0 25 -12 35 -26 20
-32 28 -104 11 -104 -6 0 -9 -3 -5 -6 10 -10 77 -13 77 -3 0 5 -4 9 -9 9 -14
0 -8 60 10 95 8 18 23 31 37 33 21 3 23 0 21 -35 -2 -22 0 -44 4 -50 3 -5 0
-19 -8 -29 -8 -10 -15 -21 -15 -24 0 -3 29 -6 65 -5 64 0 65 0 65 27 0 34 -17
46 -22 16 -2 -15 -11 -24 -25 -26 -13 -2 -23 0 -24 5 0 4 -2 16 -4 25 -4 22
14 35 25 18 5 -8 9 -7 14 5 9 24 -3 38 -20 24 -14 -12 -15 -11 -18 29 -2 28
40 28 48 0 5 -18 8 -20 15 -9 5 7 8 21 7 29 -2 13 -18 16 -80 17 -42 0 -84 -3
-94 -7 -9 -4 -11 -7 -5 -7 10 -1 10 -7 1 -26 -14 -31 -20 -31 -35 0 -8 17 -8
25 0 25 6 0 7 3 3 7 -4 4 -30 7 -59 8 l-53 0 3 -66 c4 -69 -9 -96 -36 -79 -17
10 -23 109 -9 128 6 6 9 12 7 13 -21 4 -69 3 -69 -2z m27 -81 c-3 -7 -5 -2 -5
12 0 14 2 19 5 13 2 -7 2 -19 0 -25z m190 -30 c-3 -8 -6 -5 -6 6 -1 11 2 17 5
13 3 -3 4 -12 1 -19z"/>
<path d="M952 1073 c-6 -3 -9 -10 -5 -16 4 -7 8 -38 9 -69 1 -46 -2 -58 -14
-58 -24 0 -6 -12 23 -15 14 -2 25 1 25 6 0 5 -4 9 -10 9 -5 0 -10 24 -10 53
l1 52 34 -60 c27 -47 39 -59 59 -61 15 0 26 3 26 8 0 4 -3 8 -7 8 -5 0 -9 29
-10 65 -2 55 1 65 15 66 10 1 7 4 -8 8 -26 8 -48 3 -33 -8 5 -3 10 -28 10 -56
l1 -50 -31 57 c-31 55 -48 69 -75 61z m78 -103 c6 -11 8 -20 6 -20 -3 0 -10 9
-16 20 -6 11 -8 20 -6 20 3 0 10 -9 16 -20z"/>
</g>
</svg>
